# 3ds Max Wavefront OBJ Exporter v0.97b - (c)2007 guruware
# File Created: 04.09.2013 12:43:40

mtllib steve.mtl

#
# object Steve
#

#
# object Head
#

v  0.8719 2.7569 -0.9022
v  0.8719 2.7569 0.9313
v  0.8719 0.9190 0.9313
v  0.8719 0.9190 -0.9022
v  -0.9660 2.7569 -0.8978
v  -0.9660 0.9190 -0.8978
v  -0.9660 2.7569 0.9357
v  -0.9660 0.9190 0.9357
# 8 vertices

vn 0.7063 -0.0000 -0.7080
vn 1.0000 -0.0000 -0.0000
vn -0.7080 0.0000 -0.7063
vn -0.7063 0.0000 0.7080
vn 0.0024 0.0000 1.0000
vn 0.0000 1.0000 -0.0000
vn -0.0000 -1.0000 0.0000
# 7 vertex normals

vt 0.1251 0.7494 0.0000
vt 0.0001 0.7494 0.0000
vt 0.0001 0.4997 0.0000
vt 0.1250 0.5000 0.0000
vt 0.2501 0.7494 0.0000
vt 0.2501 0.4997 0.0000
vt 0.3751 0.7497 0.0000
vt 0.3753 0.5000 0.0000
vt 0.5000 0.7494 0.0000
vt 0.5000 0.5000 0.0000
vt 0.2500 1.0000 0.0000
vt 0.1250 1.0000 0.0000
vt 0.3750 1.0000 0.0000
vt 0.3750 0.7497 0.0000
# 14 texture coords

g Head
usemtl Material__232
s 1
f 1/1/1 2/2/2 3/3/2 
f 4/4/1 1/1/1 3/3/2 
f 5/5/3 1/1/1 4/4/1 
f 6/6/3 5/5/3 4/4/1 
f 7/7/4 5/5/3 6/6/3 
f 8/8/4 7/7/4 6/6/3 
f 2/9/5 7/7/4 8/8/4 
f 3/10/5 2/9/5 8/8/4 
f 5/11/6 7/12/6 2/1/6 
f 1/5/6 5/11/6 2/1/6 
f 4/13/7 3/11/7 8/5/7 
f 6/14/7 4/13/7 8/5/7 
# 0 polygons - 12 triangles

#
# object Left_Arm
#

v  -0.9660 1.1487 -0.3924
v  -0.9660 0.6892 0.4034
v  -0.9660 -1.6983 -0.9750
v  -0.9660 -1.2388 -1.7709
v  -1.8850 1.1487 -0.3924
v  -1.8850 -1.2388 -1.7709
v  -1.8850 0.6892 0.4034
v  -1.8850 -1.6983 -0.9750
# 8 vertices

vn 0.7071 0.3536 -0.6124
vn 1.0000 -0.0000 -0.0000
vn -0.7071 0.3536 -0.6124
vn -0.7071 -0.3536 0.6124
vn 0.0000 -0.5000 0.8660
vn 0.0000 0.8660 0.5000
vn -0.0000 -0.8660 -0.5000
# 7 vertex normals

vt 0.6876 0.3744 0.0000
vt 0.6251 0.3754 0.0000
vt 0.6250 0.0004 0.0000
vt 0.6876 0.0001 0.0000
vt 0.7500 0.3747 0.0000
vt 0.7500 0.0004 0.0000
vt 0.8125 0.3751 0.0000
vt 0.8126 0.0004 0.0000
vt 0.8750 0.3744 0.0000
vt 0.8750 0.0001 0.0000
vt 0.7500 0.5001 0.0000
vt 0.6875 0.5001 0.0000
vt 0.8125 0.5001 0.0000
# 13 texture coords

g Left_Arm
usemtl Material__231
s 1
f 9/15/8 10/16/9 11/17/9 
f 12/18/8 9/15/8 11/17/9 
f 13/19/10 9/15/8 12/18/8 
f 14/20/10 13/19/10 12/18/8 
f 15/21/11 13/19/10 14/20/10 
f 16/22/11 15/21/11 14/20/10 
f 10/23/12 15/21/11 16/22/11 
f 11/24/12 10/23/12 16/22/11 
f 13/25/13 15/26/13 10/15/13 
f 9/19/13 13/25/13 10/15/13 
f 12/27/14 11/25/14 16/19/14 
f 14/21/14 12/27/14 16/19/14 
# 0 polygons - 12 triangles

#
# object Right_Arm
#

v  1.7909 0.6892 -0.3924
v  1.7909 1.1487 0.4034
v  1.7909 -1.2388 1.7819
v  1.7909 -1.6983 0.9860
v  0.8719 0.6892 -0.3924
v  0.8719 -1.6983 0.9860
v  0.8719 1.1487 0.4034
v  0.8719 -1.2388 1.7819
# 8 vertices

vn 0.7071 -0.3536 -0.6124
vn 1.0000 -0.0000 -0.0000
vn -0.7071 -0.3536 -0.6124
vn -0.7071 0.3536 0.6124
vn -0.0000 0.5000 0.8660
vn 0.0000 0.8660 -0.5000
vn -0.0000 0.8660 -0.5000
vn 0.0000 -0.8660 0.5000
# 8 vertex normals

vt 0.6876 0.3744 0.0000
vt 0.6251 0.3754 0.0000
vt 0.6250 0.0004 0.0000
vt 0.6876 0.0001 0.0000
vt 0.7500 0.3747 0.0000
vt 0.7500 0.0004 0.0000
vt 0.8125 0.3751 0.0000
vt 0.8126 0.0004 0.0000
vt 0.8750 0.3744 0.0000
vt 0.8750 0.0001 0.0000
vt 0.7500 0.5001 0.0000
vt 0.6875 0.5001 0.0000
vt 0.8125 0.5001 0.0000
# 13 texture coords

g Right_Arm
usemtl Material__236
s 1
f 17/28/15 18/29/16 19/30/16 
f 20/31/15 17/28/15 19/30/16 
f 21/32/17 17/28/15 20/31/15 
f 22/33/17 21/32/17 20/31/15 
f 23/34/18 21/32/17 22/33/17 
f 24/35/18 23/34/18 22/33/17 
f 18/36/19 23/34/18 24/35/18 
f 19/37/19 18/36/19 24/35/18 
f 21/38/20 23/39/21 18/28/20 
f 17/32/20 21/38/20 18/28/20 
f 20/40/22 19/38/22 24/32/22 
f 22/34/22 20/40/22 24/32/22 
# 0 polygons - 12 triangles

#
# object Body
#

v  0.8719 0.9190 -0.4540
v  0.8719 0.9190 0.4650
v  0.8719 -1.8379 0.4650
v  0.8719 -1.8379 -0.4540
v  -0.9660 0.9190 -0.4540
v  -0.9660 -1.8379 -0.4540
v  -0.9660 0.9190 0.4650
v  -0.9660 -1.8379 0.4650
# 8 vertices

vn 1.0000 -0.0000 -0.0000
vn 0.7071 -0.0000 -0.7071
vn -0.0000 -0.0000 -1.0000
vn -0.7071 0.0000 -0.7071
vn -1.0000 0.0000 0.0000
vn -0.7071 0.0000 0.7071
vn 0.0000 0.0000 1.0000
vn 0.0000 1.0000 -0.0000
vn -0.0000 -1.0000 0.0000
# 9 vertex normals

vt 0.3126 0.3744 0.0000
vt 0.2501 0.3747 0.0000
vt 0.2500 -0.0003 0.0000
vt 0.3126 0.0003 0.0000
vt 0.4377 0.3750 0.0000
vt 0.3127 0.3744 0.0000
vt 0.4377 0.0000 0.0000
vt 0.5002 0.3750 0.0000
vt 0.4376 0.3750 0.0000
vt 0.5002 0.0000 0.0000
vt 0.6250 0.3750 0.0000
vt 0.6250 0.0000 0.0000
vt 0.4375 0.5000 0.0000
vt 0.3126 0.4994 0.0000
vt 0.5625 0.5000 0.0000
vt 0.5625 0.3750 0.0000
# 16 texture coords

g Body
usemtl Material__233
s 1
f 25/41/23 26/42/23 27/43/23 
f 28/44/24 25/41/23 27/43/23 
f 29/45/25 25/46/25 28/44/24 
f 30/47/26 29/45/25 28/44/24 
f 31/48/27 29/49/27 30/47/26 
f 32/50/28 31/48/27 30/47/26 
f 26/51/29 31/48/29 32/50/28 
f 27/52/29 26/51/29 32/50/28 
f 29/53/30 31/54/30 26/46/30 
f 25/45/30 29/53/30 26/46/30 
f 28/55/31 27/53/31 32/45/31 
f 30/56/31 28/55/31 32/45/31 
# 0 polygons - 12 triangles

#
# object Left_Foot
#

v  -0.0655 -1.8554 -0.4714
v  -0.0299 -1.8542 0.4469
v  -0.1308 -4.6093 0.4542
v  -0.1664 -4.6104 -0.4641
v  -0.9832 -1.8217 -0.4359
v  -1.0841 -4.5767 -0.4285
v  -0.9475 -1.8205 0.4824
v  -1.0484 -4.5756 0.4898
# 8 vertices

vn 0.6787 -0.0268 -0.7339
vn 0.9986 -0.0367 -0.0387
vn -0.7335 0.0250 -0.6792
vn -0.6787 0.0268 0.7339
vn 0.0388 0.0012 0.9992
vn 0.0366 0.9993 -0.0027
vn -0.0366 -0.9993 0.0027
# 7 vertex normals

vt 0.0625 0.3748 0.0000
vt 0.0003 0.3748 0.0000
vt 0.0002 0.0001 0.0000
vt 0.0625 0.0001 0.0000
vt 0.1252 0.3745 0.0000
vt 0.1252 0.0001 0.0000
vt 0.1875 0.3748 0.0000
vt 0.1874 0.0001 0.0000
vt 0.2502 0.3751 0.0000
vt 0.2502 0.0001 0.0000
vt 0.1252 0.4995 0.0000
vt 0.0626 0.4995 0.0000
vt 0.1875 0.4995 0.0000
# 13 texture coords

g Left_Foot
usemtl Material__234
s 1
f 33/57/32 34/58/33 35/59/33 
f 36/60/32 33/57/32 35/59/33 
f 37/61/34 33/57/32 36/60/32 
f 38/62/34 37/61/34 36/60/32 
f 39/63/35 37/61/34 38/62/34 
f 40/64/35 39/63/35 38/62/34 
f 34/65/36 39/63/35 40/64/35 
f 35/66/36 34/65/36 40/64/35 
f 37/67/37 39/68/37 34/57/37 
f 33/61/37 37/67/37 34/57/37 
f 36/69/38 35/67/38 40/61/38 
f 38/63/38 36/69/38 40/61/38 
# 0 polygons - 12 triangles

#
# object Right_Foot
#

v  0.8433 -1.8752 -0.5781
v  0.8988 -1.8483 0.3388
v  0.8609 -4.6037 0.4220
v  0.8053 -4.6306 -0.4948
v  -0.0739 -1.8609 -0.5230
v  -0.1119 -4.6163 -0.4397
v  -0.0184 -1.8340 0.3939
v  -0.0563 -4.5894 0.4772
# 8 vertices

vn 0.6630 -0.0317 -0.7479
vn 0.9981 -0.0156 -0.0600
vn -0.7485 -0.0097 -0.6631
vn -0.6630 0.0317 0.7479
vn 0.0604 0.0293 0.9977
vn 0.0138 0.9994 -0.0302
vn -0.0138 -0.9994 0.0302
# 7 vertex normals

vt 0.0625 0.3748 0.0000
vt 0.0003 0.3748 0.0000
vt 0.0002 0.0001 0.0000
vt 0.0625 0.0001 0.0000
vt 0.1252 0.3745 0.0000
vt 0.1252 0.0001 0.0000
vt 0.1875 0.3748 0.0000
vt 0.1874 0.0001 0.0000
vt 0.2502 0.3751 0.0000
vt 0.2502 0.0001 0.0000
vt 0.1252 0.4995 0.0000
vt 0.0626 0.4995 0.0000
vt 0.1875 0.4995 0.0000
# 13 texture coords

g Right_Foot
usemtl Material__235
s 1
f 41/70/39 42/71/40 43/72/40 
f 44/73/39 41/70/39 43/72/40 
f 45/74/41 41/70/39 44/73/39 
f 46/75/41 45/74/41 44/73/39 
f 47/76/42 45/74/41 46/75/41 
f 48/77/42 47/76/42 46/75/41 
f 42/78/43 47/76/42 48/77/42 
f 43/79/43 42/78/43 48/77/42 
f 45/80/44 47/81/44 42/70/44 
f 41/74/44 45/80/44 42/70/44 
f 44/82/45 43/80/45 48/74/45 
f 46/76/45 44/82/45 48/74/45 
# 0 polygons - 12 triangles

